<svg width="600" height="400" viewBox="0 0 600 400" fill="none" xmlns="http://www.w3.org/2000/svg">
  <rect width="600" height="400" rx="12" fill="#f8f9fa"/>
  <rect x="20" y="20" width="560" height="40" rx="8" fill="#4facfe"/>
  <circle cx="40" cy="40" r="6" fill="white" opacity="0.8"/>
  <circle cx="60" cy="40" r="6" fill="white" opacity="0.6"/>
  <circle cx="80" cy="40" r="6" fill="white" opacity="0.4"/>
  <text x="300" y="45" text-anchor="middle" fill="white" font-family="Arial" font-size="14" font-weight="bold">Gerador de Serial</text>
  
  <rect x="40" y="80" width="520" height="60" rx="8" fill="white" stroke="#e0e0e0"/>
  <text x="60" y="105" fill="#333" font-family="Arial" font-size="14" font-weight="bold">Email do Cliente:</text>
  <rect x="60" y="115" width="480" height="20" rx="4" fill="#f8f9fa" stroke="#ddd"/>
  <text x="70" y="128" fill="#666" font-family="Arial" font-size="12">demo@exemplo.com</text>
  
  <rect x="40" y="160" width="520" height="100" rx="8" fill="white" stroke="#e0e0e0"/>
  <text x="60" y="185" fill="#333" font-family="Arial" font-size="14" font-weight="bold">Serial Gerado:</text>
  <rect x="60" y="195" width="480" height="40" rx="4" fill="#e8f5e8" stroke="#28a745"/>
  <text x="300" y="218" text-anchor="middle" fill="#28a745" font-family="Monaco, monospace" font-size="18" font-weight="bold">A3F2-B8C1-9D4E-7F6A</text>
  <text x="60" y="250" fill="#28a745" font-family="Arial" font-size="12">✅ Serial válido e único</text>
  
  <rect x="40" y="280" width="250" height="40" rx="8" fill="#007AFF"/>
  <text x="165" y="303" text-anchor="middle" fill="white" font-family="Arial" font-size="14" font-weight="bold">Gerar Novo Serial</text>
  
  <rect x="310" y="280" width="250" height="40" rx="8" fill="#28a745"/>
  <text x="435" y="303" text-anchor="middle" fill="white" font-family="Arial" font-size="14" font-weight="bold">Exportar CSV</text>
  
  <rect x="40" y="340" width="520" height="40" rx="8" fill="#fff3cd" stroke="#ffc107"/>
  <text x="60" y="363" fill="#856404" font-family="Arial" font-size="12">💾 Último arquivo salvo: serials_2025-09-17.csv (15 seriais)</text>
</svg>