<svg width="600" height="400" viewBox="0 0 600 400" fill="none" xmlns="http://www.w3.org/2000/svg">
  <rect width="600" height="400" rx="12" fill="#f8f9fa"/>
  <rect x="20" y="20" width="560" height="40" rx="8" fill="#667eea"/>
  <circle cx="40" cy="40" r="6" fill="white" opacity="0.8"/>
  <circle cx="60" cy="40" r="6" fill="white" opacity="0.6"/>
  <circle cx="80" cy="40" r="6" fill="white" opacity="0.4"/>
  <text x="300" y="45" text-anchor="middle" fill="white" font-family="Arial" font-size="14" font-weight="bold">macOS InstallAssistant Browser</text>
  
  <rect x="40" y="80" width="520" height="60" rx="8" fill="white" stroke="#e0e0e0"/>
  <text x="60" y="105" fill="#333" font-family="Arial" font-size="16" font-weight="bold">macOS Sonoma 14.2.1</text>
  <text x="60" y="125" fill="#666" font-family="Arial" font-size="12">Tamanho: 8.1 GB • Lançamento: Dezembro 2023</text>
  <rect x="480" y="95" width="60" height="30" rx="4" fill="#007AFF"/>
  <text x="510" y="113" text-anchor="middle" fill="white" font-family="Arial" font-size="12" font-weight="bold">Download</text>
  
  <rect x="40" y="160" width="520" height="60" rx="8" fill="white" stroke="#e0e0e0"/>
  <text x="60" y="185" fill="#333" font-family="Arial" font-size="16" font-weight="bold">macOS Ventura 13.6.3</text>
  <text x="60" y="205" fill="#666" font-family="Arial" font-size="12">Tamanho: 7.8 GB • Lançamento: Novembro 2023</text>
  <rect x="480" y="175" width="60" height="30" rx="4" fill="#007AFF"/>
  <text x="510" y="193" text-anchor="middle" fill="white" font-family="Arial" font-size="12" font-weight="bold">Download</text>
  
  <rect x="40" y="240" width="520" height="60" rx="8" fill="white" stroke="#e0e0e0"/>
  <text x="60" y="265" fill="#333" font-family="Arial" font-size="16" font-weight="bold">macOS Monterey 12.7.2</text>
  <text x="60" y="285" fill="#666" font-family="Arial" font-size="12">Tamanho: 7.2 GB • Lançamento: Outubro 2023</text>
  <rect x="480" y="255" width="60" height="30" rx="4" fill="#007AFF"/>
  <text x="510" y="273" text-anchor="middle" fill="white" font-family="Arial" font-size="12" font-weight="bold">Download</text>
  
  <rect x="40" y="320" width="520" height="60" rx="8" fill="white" stroke="#e0e0e0" opacity="0.5"/>
  <text x="60" y="345" fill="#999" font-family="Arial" font-size="16" font-weight="bold">macOS Big Sur 11.7.10</text>
  <text x="60" y="365" fill="#999" font-family="Arial" font-size="12">Tamanho: 6.8 GB • Lançamento: Setembro 2023</text>
  <rect x="480" y="335" width="60" height="30" rx="4" fill="#ccc"/>
  <text x="510" y="353" text-anchor="middle" fill="white" font-family="Arial" font-size="12" font-weight="bold">Indisponível</text>
</svg>