<svg width="600" height="400" viewBox="0 0 600 400" fill="none" xmlns="http://www.w3.org/2000/svg">
  <rect width="600" height="400" rx="12" fill="#f8f9fa"/>
  <rect x="20" y="20" width="560" height="40" rx="8" fill="#f093fb"/>
  <circle cx="40" cy="40" r="6" fill="white" opacity="0.8"/>
  <circle cx="60" cy="40" r="6" fill="white" opacity="0.6"/>
  <circle cx="80" cy="40" r="6" fill="white" opacity="0.4"/>
  <text x="300" y="45" text-anchor="middle" fill="white" font-family="Arial" font-size="14" font-weight="bold">Gerenciador de Downloads</text>
  
  <rect x="40" y="80" width="520" height="80" rx="8" fill="white" stroke="#e0e0e0"/>
  <text x="60" y="105" fill="#333" font-family="Arial" font-size="16" font-weight="bold">macOS Sonoma 14.2.1</text>
  <text x="60" y="125" fill="#666" font-family="Arial" font-size="12">Progresso: 65% • Velocidade: 45.2 MB/s</text>
  <rect x="60" y="135" width="400" height="8" rx="4" fill="#e0e0e0"/>
  <rect x="60" y="135" width="260" height="8" rx="4" fill="#007AFF"/>
  <text x="480" y="142" fill="#007AFF" font-family="Arial" font-size="12" font-weight="bold">5.2 GB / 8.1 GB</text>
  
  <rect x="40" y="180" width="520" height="80" rx="8" fill="white" stroke="#e0e0e0"/>
  <text x="60" y="205" fill="#333" font-family="Arial" font-size="16" font-weight="bold">macOS Ventura 13.6.3</text>
  <text x="60" y="225" fill="#666" font-family="Arial" font-size="12">Status: Pausado • Progresso: 23%</text>
  <rect x="60" y="235" width="400" height="8" rx="4" fill="#e0e0e0"/>
  <rect x="60" y="235" width="92" height="8" rx="4" fill="#ffc107"/>
  <text x="480" y="242" fill="#ffc107" font-family="Arial" font-size="12" font-weight="bold">1.8 GB / 7.8 GB</text>
  
  <rect x="40" y="280" width="520" height="80" rx="8" fill="white" stroke="#e0e0e0"/>
  <text x="60" y="305" fill="#333" font-family="Arial" font-size="16" font-weight="bold">macOS Monterey 12.7.2</text>
  <text x="60" y="325" fill="#28a745" font-family="Arial" font-size="12">✅ Download Concluído • Verificação: OK</text>
  <rect x="60" y="335" width="400" height="8" rx="4" fill="#28a745"/>
  <text x="480" y="342" fill="#28a745" font-family="Arial" font-size="12" font-weight="bold">7.2 GB / 7.2 GB</text>
</svg>